<?xml version="1.0" encoding="UTF-8"?>
<svg xmlns="http://www.w3.org/2000/svg" viewBox="0 0 160 160">
  <rect width="160" height="160" fill="#0f1c22"/>
  <g fill="none" stroke="#69d8c9" stroke-width="10" stroke-miterlimit="10">
    <path d="M61.8,94.26c-17.7-25.21-23.92-51.36-13.87-58.41,8.79-6.17,27.11,4.32,43.41,23.93"/>
    <path d="M65.56,99.36c-1.27-1.65-2.53-3.35-3.76-5.1"/>
    <path d="M101.3,73.41c15.16,23.62,19.99,46.93,10.59,53.53-9.34,6.56-29.47-5.72-46.48-27.77"/>
    <path d="M91.33,59.77c2.33,2.8,4.62,5.79,6.83,8.94,1.14,1.62,2.23,3.25,3.28,4.88"/>
  </g>
  <g fill="#29abe2">
    <path d="M80.54,87.71c-1.1,0-2.17-.23-3.18-.69-1.87-.85-3.31-2.38-4.03-4.3-.72-1.93-.65-4.02.2-5.89,1.25-2.75,4-4.52,7.02-4.52,1.1,0,2.17.23,3.18.69,1.87.85,3.3,2.38,4.03,4.31.72,1.93.65,4.02-.2,5.89-1.25,2.75-4,4.53-7.02,4.53h0Z"/>
    <path d="M80.55,74.79c.74,0,1.46.16,2.14.47,1.27.57,2.23,1.61,2.72,2.91.49,1.3.44,2.71-.13,3.98-.84,1.86-2.7,3.06-4.75,3.06-.74,0-1.46-.16-2.14-.47-2.61-1.19-3.77-4.28-2.59-6.89.84-1.86,2.7-3.06,4.75-3.06M80.55,69.79c-3.88,0-7.59,2.23-9.3,5.99-2.33,5.13-.05,11.18,5.08,13.51,1.37.62,2.8.91,4.21.91,3.88,0,7.59-2.23,9.3-5.99,2.33-5.13.05-11.18-5.08-13.51-1.37-.62-2.8-.91-4.21-.91h0Z"/>
  </g>
  <path d="M107.57,90.52c-13.41,34.47-36.39,57.71-51.32,51.9-14.93-5.81-16.16-38.46-2.74-72.94,13.41-34.47,36.39-57.71,51.32-51.9,14.93,5.81,16.16,38.46,2.74,72.94" fill="none" stroke="#5cb579" stroke-width="11" stroke-miterlimit="10"/>
</svg>
